<?xml version="1.0" encoding="utf-8"?>
<!-- Generator: Adobe Illustrator 16.0.0, SVG Export Plug-In . SVG Version: 6.00 Build 0)  -->
<!DOCTYPE svg PUBLIC "-//W3C//DTD SVG 1.1//EN" "http://www.w3.org/Graphics/SVG/1.1/DTD/svg11.dtd">
<svg version="1.1" xmlns="http://www.w3.org/2000/svg" xmlns:xlink="http://www.w3.org/1999/xlink" x="0px" y="0px" width="8100px"
	 height="5000px" viewBox="0 0 8100 5000" enable-background="new 0 0 8100 5000" xml:space="preserve">
<g id="background">
	<rect fill-rule="evenodd" clip-rule="evenodd" fill="#7086EF" width="8100" height="5000"/>
</g>
<g id="Layer_1">
	<path fill="none" stroke="#FFFFFF" stroke-width="34" stroke-linecap="round" stroke-linejoin="round" stroke-miterlimit="10" d="
		M6365.554,4243.89c0,48.626-39.419,88.045-88.045,88.045H1986.72c-48.626,0-88.045-39.419-88.045-88.045V1668.107
		c0-48.626,39.419-88.045,88.045-88.045h4290.789c48.626,0,88.045,39.419,88.045,88.045V4243.89z"/>
	<g>
		<g>
			<g opacity="0.3">
				<g>
					<path fill="#6262D3" d="M6194.937,1342.863H2069.292c-94.23,0-170.617-76.387-170.617-170.617v-25.289
						c0-94.23,76.387-170.617,170.617-170.617h4125.645c94.23,0,170.617,76.387,170.617,170.617v25.289
						C6365.554,1266.477,6289.167,1342.863,6194.937,1342.863z"/>
				</g>
			</g>
			<g>
				<g>
					<path fill="#FFFFFF" d="M6194.937,1279.465H2069.292c-94.23,0-170.617-76.391-170.617-170.621v-25.289
						c0-94.23,76.387-170.617,170.617-170.617h4125.645c94.23,0,170.617,76.387,170.617,170.617v25.289
						C6365.554,1203.074,6289.167,1279.465,6194.937,1279.465z"/>
				</g>
			</g>
		</g>
		<path fill="#4F55C9" d="M2275.272,1201.457l-73.902-73.039c10.328-15.453,15.922-33.906,15.836-52.434
			c-0.223-52.406-43.574-95.301-96.629-95.598c-24.969-0.074-50.133,9.984-68.051,27.691c-17.93,17.73-28.125,42.258-27.977,67.309
			c0.23,52.422,43.578,95.305,96.641,95.602c0.129,0,0.262,0,0.391,0c18.703,0,37.273-5.578,52.953-15.898l73.863,73.012
			L2275.272,1201.457z M2188.437,1075.984c0.102,17.508-7.027,34.641-19.559,47.043c-12.488,12.34-29.758,19.398-47.426,19.398
			c-0.094,0-0.188,0-0.289,0c-37.246-0.199-67.691-30.27-67.844-67.023c-0.102-17.508,7.027-34.652,19.559-47.043
			c12.551-12.414,29.852-19.535,47.699-19.41C2157.839,1009.16,2188.28,1039.23,2188.437,1075.984z"/>
		<path fill-rule="evenodd" clip-rule="evenodd" fill="#354CD8" d="M6117.366,1100.488l-41.562,41.789
			c-4.918,4.941-4.918,12.961,0,17.902c4.918,4.957,12.887,4.957,17.805,0l41.562-41.785l41.562,41.785
			c4.918,4.957,12.887,4.957,17.805,0c4.918-4.941,4.918-12.961,0-17.902l-41.562-41.789l41.562-41.785
			c4.918-4.941,4.918-12.949,0-17.902c-4.918-4.945-12.887-4.945-17.805,0l-41.562,41.785l-41.562-41.785
			c-4.918-4.945-12.887-4.945-17.805,0c-4.918,4.953-4.918,12.961,0,17.902L6117.366,1100.488z M6135.171,1235.562
			c-74.195,0-134.336-60.477-134.336-135.074c0-74.594,60.141-135.07,134.336-135.07s134.336,60.477,134.336,135.07
			C6269.507,1175.086,6209.366,1235.562,6135.171,1235.562z"/>
	</g>
	<g>
		<polygon fill="#0C1D6D" points="6185.141,4244.006 6277.868,4387.207 6106.655,4555.459 6150.689,4387.207 6086.368,4310.531 		
			"/>
		<g>
			<g>
				<g>
					<g>
						<path fill="#3E739B" d="M3077.04,4068.869c0,75.203-60.962,136.166-136.184,136.166c-75.203,0-136.166-60.963-136.166-136.166
							c0-75.223,60.962-136.186,136.166-136.186C3016.078,3932.684,3077.04,3993.646,3077.04,4068.869z"/>
						<path fill="#234C66" d="M3022.754,4068.869c0,45.215-36.664,81.883-81.898,81.883c-45.215,0-81.883-36.668-81.883-81.883
							c0-45.234,36.668-81.898,81.883-81.898C2986.09,3986.971,3022.754,4023.635,3022.754,4068.869z"/>
						<path fill="#78A0C4" d="M2887.014,4053.973l46.703-123.16c2.508-6.6,8.819-10.979,15.878-10.979h162.411
							c14.82,0,22.53,17.654,12.458,28.541l-146.229,157.836c-12.196,13.141-30.896,17.988-47.938,12.43l-14.624-4.785
							C2890.799,4105.729,2877.732,4078.441,2887.014,4053.973z"/>
						<path fill="#3E739B" d="M2972.214,4068.869c0,17.309-14.03,31.357-31.358,31.357c-17.31,0-31.358-14.049-31.358-31.357
							c0-17.328,14.049-31.377,31.358-31.377C2958.185,4037.492,2972.214,4051.541,2972.214,4068.869z"/>
					</g>
					<g>
						<path fill="#3E739B" d="M3987.424,4068.869c0,75.203-60.962,136.166-136.185,136.166
							c-75.203,0-136.165-60.963-136.165-136.166c0-75.223,60.962-136.186,136.165-136.186
							C3926.462,3932.684,3987.424,3993.646,3987.424,4068.869z"/>
						<path fill="#234C66" d="M3933.138,4068.869c0,45.215-36.664,81.883-81.898,81.883c-45.215,0-81.883-36.668-81.883-81.883
							c0-45.234,36.668-81.898,81.883-81.898C3896.474,3986.971,3933.138,4023.635,3933.138,4068.869z"/>
						<path fill="#78A0C4" d="M3797.397,4053.973l46.703-123.16c2.508-6.6,8.818-10.979,15.878-10.979h162.411
							c14.82,0,22.53,17.654,12.458,28.541l-146.229,157.836c-12.196,13.141-30.896,17.988-47.938,12.43l-14.624-4.785
							C3801.183,4105.729,3788.116,4078.441,3797.397,4053.973z"/>
						<path fill="#3E739B" d="M3882.598,4068.869c0,17.309-14.029,31.357-31.358,31.357c-17.31,0-31.358-14.049-31.358-31.357
							c0-17.328,14.049-31.377,31.358-31.377C3868.568,4037.492,3882.598,4051.541,3882.598,4068.869z"/>
					</g>
					<g>
						<path fill="#BFD3EF" d="M4358.217,2803.627c7.821,0,15.256-4.557,18.544-12.178
							c46.16-106.832,123.043-280.977,136.839-302.763c20.631-14.998,176.058-70.361,316.836-116.04
							c8.317-2.704,13.95-10.442,13.95-19.181c0-8.762-5.633-16.5-13.95-19.204l-250.143-81.051
							c-3.761-1.193-7.737-1.31-11.536-0.29c-23.92,6.526-235.068,65.019-280.485,107.24
							c-36.078,33.501-174.853,325.271-195.82,369.406c-4.786,10.076-0.491,22.096,9.571,26.881
							c10.115,4.768,22.105,0.506,26.882-9.57c47.241-99.48,163.339-335.326,186.829-357.173
							c28.098-26.128,170.513-72.116,257.865-96.237l185.512,60.111c-129.199,42.862-262.811,90.777-277.117,109.883
							c-16.762,22.33-121.451,263.822-142.274,311.988c-4.421,10.227,0.29,22.115,10.517,26.518
							C4352.841,2803.104,4355.555,2803.627,4358.217,2803.627z"/>
					</g>
					<g>
						<path fill="#BFD3EF" d="M2388.838,2774.4c-5.886,0-11.425-2.83-14.873-7.625c-3.545-4.928-4.419-11.291-2.333-16.992
							l40.271-110.1c2.53-6.916,8.956-11.646,16.312-12.006l1756.071-85.93c3.725-0.191,7.401,0.771,10.562,2.734l227.725,141.414
							c6.874,4.27,10.133,12.543,8.019,20.354c-2.114,7.812-9.102,13.311-17.19,13.529l-2024.067,54.613
							C2389.168,2774.396,2389.002,2774.4,2388.838,2774.4z M2442.143,2663.686l-26.828,73.348l1936.018-52.238l-170.963-106.166
							L2442.143,2663.686z"/>
					</g>
					<path fill="#BFD3EF" d="M2637.377,4065.027c17.946-71.787,54.923-143.613,81.688-179.967
						c13.894-18.854,36.668-40.492,90.023-40.492h1217.243c19.171,0,53.496-3.162,68.036-24.447
						c13.632-19.973,5.824-51.508-3.116-74.451c-35.878-91.955-67.919-150.158-68.228-150.719l47.56,3.977
						c1.338,2.451,21.323,37.398,58.268,132.096c18.143,46.525,17.754,84.156-1.165,111.848
						c-18.797,27.521-53.852,42.053-101.354,42.053h-65.196v27.307c0,16.941-13.73,30.68-30.676,30.68h-23.312
						c-16.944,0-30.676-13.738-30.676-30.68v-27.307h-804.854v27.307c0,16.941-13.721,30.68-30.666,30.68h-23.312
						c-16.945,0-30.662-13.738-30.662-30.68v-27.307h-177.891c-36.725,0-48.939,12.406-57.505,24.064
						c-25.282,34.311-59.189,102.295-75.072,165.826c-3.569,14.26-2.583,25.164,2.914,32.342
						c11.004,14.455,38.849,16.191,47.129,16.363c282.058,6.33,890.354,2.859,1217.154,0.988
						c97.145-0.58,170.738-0.988,205.792-0.988c49.558,0,86.436-14.184,103.862-39.941c16.758-24.801,16.285-61.197-1.38-105.271
						c-38.923-96.953-153.283-385.709-153.283-385.709l37.515-14.857c0,0,114.318,288.639,153.194,385.549
						c28.926,72.098,14.54,117.51-2.634,142.885c-25.164,37.205-73.912,57.701-137.274,57.701c-22.993,0-62.824,0.174-114.753,0.463
						v26.4c0,16.939-13.73,30.66-30.676,30.66h-23.312c-16.936,0-30.676-13.721-30.676-30.66v-19.805
						c-2.362-2.391-3.648-3.682-6.021-6.096c-186.242,1.082-463.822,2.662-720.579,2.662c-69.697,0-137.789-0.117-202.157-0.402
						v23.641c0,16.939-13.74,30.66-30.685,30.66h-23.312c-16.921,0-30.661-13.721-30.661-30.66v-24.104
						c-80.606-0.58-152.783-1.469-211.022-2.76c-20.416-0.482-57.758-5.268-78.314-32.248
						C2634.018,4114.201,2630.683,4091.797,2637.377,4065.027z"/>
					<polygon fill="#A6C0DD" points="3895.732,4124.773 3824.146,3871.455 3065.209,3871.455 3023.834,4124.773 					"/>
					<g>
						<path fill="#3E739B" d="M3041.111,4335.619c0,75.203-60.962,136.166-136.185,136.166
							c-75.203,0-136.166-60.963-136.166-136.166c0-75.223,60.962-136.186,136.166-136.186
							C2980.149,4199.434,3041.111,4260.396,3041.111,4335.619z"/>
						<path fill="#234C66" d="M2986.825,4335.619c0,45.215-36.664,81.883-81.898,81.883c-45.215,0-81.884-36.668-81.884-81.883
							c0-45.234,36.668-81.898,81.884-81.898C2950.161,4253.721,2986.825,4290.385,2986.825,4335.619z"/>
						<path fill="#78A0C4" d="M2851.085,4320.723l46.703-123.16c2.507-6.6,8.818-10.979,15.878-10.979h162.411
							c14.821,0,22.531,17.654,12.458,28.541l-146.229,157.836c-12.196,13.141-30.896,17.988-47.938,12.43l-14.624-4.785
							C2854.869,4372.479,2841.803,4345.191,2851.085,4320.723z"/>
						<path fill="#3E739B" d="M2936.285,4335.619c0,17.309-14.03,31.357-31.358,31.357c-17.31,0-31.358-14.049-31.358-31.357
							c0-17.328,14.049-31.377,31.358-31.377C2922.255,4304.242,2936.285,4318.291,2936.285,4335.619z"/>
					</g>
					<g>
						<path fill="#3E739B" d="M4043.321,4335.619c0,75.203-60.963,136.166-136.185,136.166
							c-75.203,0-136.166-60.963-136.166-136.166c0-75.223,60.963-136.186,136.166-136.186
							C3982.358,4199.434,4043.321,4260.396,4043.321,4335.619z"/>
						<path fill="#234C66" d="M3989.034,4335.619c0,45.215-36.663,81.883-81.897,81.883c-45.216,0-81.884-36.668-81.884-81.883
							c0-45.234,36.668-81.898,81.884-81.898C3952.371,4253.721,3989.034,4290.385,3989.034,4335.619z"/>
						<path fill="#78A0C4" d="M3853.295,4320.723l46.703-123.16c2.507-6.6,8.818-10.979,15.878-10.979h162.41
							c14.821,0,22.531,17.654,12.459,28.541l-146.229,157.836c-12.196,13.141-30.896,17.988-47.938,12.43l-14.624-4.785
							C3857.079,4372.479,3844.013,4345.191,3853.295,4320.723z"/>
						<path fill="#3E739B" d="M3938.495,4335.619c0,17.309-14.03,31.357-31.358,31.357c-17.31,0-31.358-14.049-31.358-31.357
							c0-17.328,14.049-31.377,31.358-31.377C3924.465,4304.242,3938.495,4318.291,3938.495,4335.619z"/>
					</g>
					<g>
						<path fill="#BFD3EF" d="M4429.531,2705.051l-265.763,876.492c-7.957,26.264-32.556,43.92-59.984,43.072l-1469.977-45.467
							c-27.326-0.848-50.717-19.859-57.164-46.432l-187.804-776.641L4429.531,2705.051z"/>
					</g>
				</g>
			</g>
		</g>
		<polygon fill="#0C1D6D" points="5020.366,4243.315 4929.474,4443.275 4690.554,4359.841 4870.413,4306.836 4911.295,4220.594 		
			"/>
		<path fill="#ED9F4A" d="M4789.269,2207.029h-72.414c0,0-113.148-7.21-138.041,62.941c0,0-15.841,26.58,15.841,59.681
			c0,0,38.47-73.259,76.94-32.525l-15.841,22.63c0,0,23.119,20.141,61.101-22.63l92.78,2.263L4789.269,2207.029z"/>
		<path fill="#385268" d="M6234.468,4268.99l-315.223-697.422l-89.795-1070.207l-408.318,49.192
			c0,0,162.596,1020.784,257.158,1150.812l406.447,662.193L6234.468,4268.99z"/>
		<path fill="#3DC9E0" d="M5337.456,1882.217c0,0-213.072,288.434-572.652,309.954l22.539,120.21
			c0,0,525.672-71.028,677.601-184.676"/>
		<path fill="#FFB55C" d="M4941.41,2268.236h-72.414c0,0-113.148-7.21-138.041,62.941c0,0-15.841,26.58,15.841,59.681
			c0,0,38.47-73.259,76.94-32.525l-15.841,22.63c0,0,23.119,20.141,61.101-22.63l92.78,2.263L4941.41,2268.236z"/>
		<polygon fill="#46617C" points="5310.097,2550.554 5024.774,3432.461 4855.461,4244.006 5034.617,4300.964 5303.163,3475.896 
			5771.132,2550.554 		"/>
		<path fill="#AF5417" d="M5243.45,1261.152c42.931-115.262,263.387-33.579,263.387-33.579
			c141.85,15.766,89.319,241.673,89.319,241.673c-31.524,99.82-90.188,97.638-90.188,97.638l-175.129-160.68
			C5330.839,1406.204,5195.405,1390.146,5243.45,1261.152z"/>
		<path fill="#52DEFF" d="M5526.892,1641.347c0,0,311.099,154.753,315.184,1010.487h-564.746
			C5277.329,2651.834,5232.507,1655.939,5526.892,1641.347z"/>
		<path fill="#52DEFF" d="M5652.243,1905.824c0,0,9.955,604.064-740.822,463.948l-9.012-109.953c0,0,396.829,66.319,550.967-416.766
			"/>
		<path fill="#FFB55C" d="M5316.558,1347.511c-11.804,5.759-23.522,13.809-31.68,23.147c-8.723,9.983-10.252,26.011-13.119,38.341
			c-2.195,9.429-5.308,18.662-7.649,28.081c-5.249,21.104-11.349,42.007-16.87,63.053c-0.213,0.804-4.265,13.845-3.743,14.159
			c0.003,0,35.46,21.019,35.46,21.019v78.803c0,0-3.631,27.233,69.779,18.801l27.825,136.422c0,0,74.288-121.068,174.188-115.822
			l-57.711-111.644c0,0,22.582-13.005,30-34.297c9.57-27.471,0.079-62.875-51.012-40.565c1.979,0.391-27.56-6.41-28.917-10.01
			c-14.858-39.433-27.005-106.415-67.196-115.739c-16.318-3.784-33.249-4.126-49.107,1.829
			C5323.439,1344.35,5319.996,1345.829,5316.558,1347.511z"/>
		<path fill="#AF5417" d="M5366.52,1396.23c0,0-51.761-41.993-79.531-8.908L5366.52,1396.23z"/>
		<path fill="#20293F" d="M5311.543,1424.905c0,7.156,3.392,12.957,7.577,12.957c4.178,0,7.574-5.801,7.574-12.957
			c0-7.159-3.396-12.952-7.574-12.952C5314.935,1411.953,5311.543,1417.746,5311.543,1424.905z"/>
		<path fill="#ED9F4A" d="M5348.735,1632.915c0,0,88.318-36.667,101.152-66.026l-80.861,165.5L5348.735,1632.915z"/>
		<path fill="#ED9F4A" d="M5514.131,1482.761c0,0-7.634-25.45-35.63-3.817l13.997,41.993
			C5492.498,1520.936,5518.585,1507.575,5514.131,1482.761z"/>
		<path fill="#FFFFFF" d="M5286.988,1550.476l35.335-9.862c0,0-1.062,35.926-30.469,39.448L5286.988,1550.476z"/>
	</g>
	<g>
		<g>
			<path fill="#FC5D4C" d="M3737.549,2590.904l-711.514-125.909c-49.101-8.689-81.885-55.57-73.19-104.699l66.099-373.523
				c8.694-49.129,55.575-81.912,104.676-73.223l711.514,125.91c49.138,8.696,81.894,55.572,73.2,104.7l-66.1,373.524
				C3833.541,2566.812,3786.687,2599.601,3737.549,2590.904z"/>
		</g>
		
			<rect x="2994.259" y="2123.911" transform="matrix(0.9847 0.1743 -0.1743 0.9847 430.1377 -567.3174)" fill="#FFFFFF" width="903.208" height="84.008"/>
		
			<rect x="3691.222" y="2024.184" transform="matrix(0.9847 0.1743 -0.1743 0.9847 458.4951 -613.7119)" fill="#FFFFFF" width="66.006" height="560.013"/>
	</g>
	<g>
		
			<rect x="2796.527" y="1252.047" transform="matrix(0.9871 -0.1602 0.1602 0.9871 -207.8894 513.9595)" fill="#B2E05A" width="573.057" height="588.059"/>
		
			<rect x="2716.779" y="1177.935" transform="matrix(0.9871 -0.1602 0.1602 0.9871 -160.8245 502.3713)" fill="#9ECC3B" width="635.928" height="141.014"/>
		
			<rect x="3027.301" y="1174.543" transform="matrix(0.9871 -0.1602 0.1602 0.9871 -201.8052 512.4728)" fill="#FFFFFF" width="99.01" height="666.067"/>
	</g>
</g>
</svg>
